<?xml version="1.0" encoding="UTF-8"?>
<svg id="Layer_2" data-name="Layer 2" xmlns="http://www.w3.org/2000/svg" viewBox="0 0 324.08 376.69">
  <defs>
    <style>
      .cls-1 {
        fill: #010101;
        stroke-width: 0px;
      }
    </style>
  </defs>
  <g id="Layer_1-2" data-name="Layer 1">
    <path class="cls-1" d="M252.18,174.59c-1.62-.78-3.27-1.53-4.94-2.24-2.91-53.57-32.18-84.25-81.34-84.56-.22,0-.44,0-.67,0-29.4,0-53.85,12.55-68.9,35.39l27.03,18.54c11.24-17.06,28.89-20.69,41.88-20.69.15,0,.3,0,.45,0,16.18.1,28.4,4.81,36.3,13.99,5.75,6.68,9.6,15.91,11.5,27.56-14.35-2.44-29.87-3.19-46.46-2.24-46.73,2.69-76.78,29.95-74.76,67.82,1.02,19.21,10.59,35.74,26.95,46.54,13.83,9.13,31.63,13.59,50.14,12.58,24.44-1.34,43.62-10.67,56.99-27.72,10.16-12.95,16.58-29.73,19.42-50.87,11.65,7.03,20.28,16.28,25.05,27.4,8.11,18.9,8.58,49.97-16.77,75.29-22.21,22.19-48.9,31.78-89.24,32.08-44.75-.33-78.59-14.68-100.6-42.66-20.61-26.19-31.25-64.03-31.65-112.45.4-48.43,11.05-86.26,31.65-112.45,22-27.97,55.85-42.32,100.6-42.66,45.08.34,79.51,14.76,102.36,42.86,11.2,13.78,19.65,31.12,25.22,51.33l31.68-8.45c-6.75-24.88-17.37-46.31-31.82-64.09C262.97,18.85,220.13.38,164.94,0h-.22c-55.08.38-97.44,18.92-125.9,55.09C13.5,87.28.44,132.07,0,188.21v.13s0,.13,0,.13c.44,56.14,13.5,100.94,38.82,133.12,28.46,36.17,70.81,54.71,125.9,55.09h.22c48.97-.34,83.49-13.16,111.93-41.57,37.2-37.17,36.08-83.76,23.82-112.36-8.8-20.51-25.57-37.17-48.51-48.17ZM167.63,254.09c-20.48,1.15-41.76-8.04-42.81-27.73-.78-14.6,10.39-30.89,44.07-32.83,3.86-.22,7.64-.33,11.36-.33,12.23,0,23.68,1.19,34.08,3.46-3.88,48.46-26.64,56.33-46.7,57.43Z"/>
  </g>
</svg>